<svg xmlns="http://www.w3.org/2000/svg" viewBox="0 0 252 218">
  <defs>
    <style>
      .cls-1 {
        fill: #ffe76e;
      }

      .cls-2 {
        fill: #2fb1ea;
      }

      .cls-3 {
        fill: #6dd0fc;
      }

      .cls-4 {
        fill: #a4ecff;
      }

      .cls-5 {
        fill: #d4ffd4;
      }

      .cls-6 {
        fill: #ffbdbd;
      }

      .cls-7 {
        fill: #bbf1ff;
      }

      .cls-8 {
        fill: #fff4c5;
      }
    </style>
  </defs>
  <g id="graph" transform="translate(-2 -19)">
    <rect id="Rectangle_107" data-name="Rectangle 107" class="cls-1" width="14.09" height="91.64" rx="7.04" transform="translate(152 44) rotate(90)"/>
    <rect id="Rectangle_108" data-name="Rectangle 108" class="cls-1" width="14.09" height="60.51" rx="7.04" transform="translate(120.87 64.32) rotate(90)"/>
    <rect id="Rectangle_109" data-name="Rectangle 109" class="cls-1" width="14.09" height="48.89" rx="7.04" transform="translate(109.25 84.64) rotate(90)"/>
    <rect id="Rectangle_110" data-name="Rectangle 110" class="cls-1" width="14.09" height="82.67" rx="7.04" transform="translate(143.03 104.96) rotate(90)"/>
    <path id="Path_228" data-name="Path 228" class="cls-2" d="M44,234a2,2,0,0,1-2-2V24a2,2,0,0,1,4,0V232A2,2,0,0,1,44,234Z"/>
    <path id="Path_229" data-name="Path 229" class="cls-3" d="M50,212l26-38.67,26-13,26,11.29,26-35.98,26,3.03L206,70V212Z"/>
    <path id="Path_230" data-name="Path 230" class="cls-4" d="M125,183.14l26,11.29,26-35.98,26,3.03,3-7.93V70l-26,68.67-26-3.03-26,35.98-26-11.29-26,13L58.61,199.19l38.37-.05,2.02-3Z"/>
    <path id="Path_231" data-name="Path 231" class="cls-2" d="M206,214H50a2,2,0,0,1-1.66-3.12l26-38.67a2,2,0,0,1,.77-.67l26-13a2,2,0,0,1,1.69,0l24.52,10.65,25.06-34.68a2,2,0,0,1,1.85-.81l24.45,2.85,25.45-67.21A2,2,0,0,1,208,70V212A2,2,0,0,1,206,214ZM53.75,210H204V80.93l-22.13,58.44a2,2,0,0,1-2.1,1.28l-24.83-2.89-25.31,35a2,2,0,0,1-2.42.66L102.07,162.5l-24.7,12.39Z"/>
    <path id="Path_232" data-name="Path 232" class="cls-2" d="M232,214H24a2,2,0,0,1,0-4H232a2,2,0,0,1,0,4Z"/>
    <circle id="Ellipse_352" data-name="Ellipse 352" class="cls-5" cx="5" cy="5" r="5" transform="translate(202 227)"/>
    <circle id="Ellipse_353" data-name="Ellipse 353" class="cls-5" cx="4" cy="4" r="4" transform="translate(25 163)"/>
    <circle id="Ellipse_354" data-name="Ellipse 354" class="cls-5" cx="3" cy="3" r="3" transform="translate(170 86)"/>
    <circle id="Ellipse_355" data-name="Ellipse 355" class="cls-5" cx="2" cy="2" r="2" transform="translate(102 134)"/>
    <circle id="Ellipse_356" data-name="Ellipse 356" class="cls-5" cx="1" cy="1" r="1" transform="translate(28 229)"/>
    <circle id="Ellipse_357" data-name="Ellipse 357" class="cls-6" cx="5" cy="5" r="5" transform="translate(2 185)"/>
    <circle id="Ellipse_358" data-name="Ellipse 358" class="cls-6" cx="4" cy="4" r="4" transform="translate(196 27)"/>
    <circle id="Ellipse_359" data-name="Ellipse 359" class="cls-6" cx="3" cy="3" r="3" transform="translate(27 84)"/>
    <circle id="Ellipse_360" data-name="Ellipse 360" class="cls-6" cx="2" cy="2" r="2" transform="translate(223 72)"/>
    <circle id="Ellipse_361" data-name="Ellipse 361" class="cls-6" cx="1" cy="1" r="1" transform="translate(236 110)"/>
    <circle id="Ellipse_362" data-name="Ellipse 362" class="cls-7" cx="5" cy="5" r="5" transform="translate(146 19)"/>
    <circle id="Ellipse_363" data-name="Ellipse 363" class="cls-7" cx="4" cy="4" r="4" transform="translate(18 127)"/>
    <circle id="Ellipse_364" data-name="Ellipse 364" class="cls-7" cx="3" cy="3" r="3" transform="translate(140 220)"/>
    <circle id="Ellipse_365" data-name="Ellipse 365" class="cls-7" cx="2" cy="2" r="2" transform="translate(163 100)"/>
    <circle id="Ellipse_366" data-name="Ellipse 366" class="cls-7" cx="1" cy="1" r="1" transform="translate(27 51)"/>
    <circle id="Ellipse_367" data-name="Ellipse 367" class="cls-8" cx="5" cy="5" r="5" transform="translate(244 171)"/>
    <circle id="Ellipse_368" data-name="Ellipse 368" class="cls-8" cx="4" cy="4" r="4" transform="translate(215 98)"/>
    <circle id="Ellipse_369" data-name="Ellipse 369" class="cls-8" cx="3" cy="3" r="3" transform="translate(94 32)"/>
    <circle id="Ellipse_370" data-name="Ellipse 370" class="cls-8" cx="2" cy="2" r="2" transform="translate(72 151)"/>
    <circle id="Ellipse_371" data-name="Ellipse 371" class="cls-8" cx="1" cy="1" r="1" transform="translate(97 232)"/>
  </g>
</svg>
