<svg xmlns="http://www.w3.org/2000/svg" viewBox="0 0 252 218">
  <defs>
    <style>
      .cls-1 {
        fill: #52e355;
      }

      .cls-2 {
        fill: #90fc95;
      }

      .cls-3 {
        fill: #2fb1ea;
      }

      .cls-4 {
        fill: #ffe76e;
      }

      .cls-5 {
        fill: #fff;
      }

      .cls-6 {
        fill: #d4ffd4;
      }

      .cls-7 {
        fill: #ffbdbd;
      }

      .cls-8 {
        fill: #bbf1ff;
      }

      .cls-9 {
        fill: #fff4c5;
      }
    </style>
  </defs>
  <g id="money" transform="translate(-2 -38.482)">
    <path id="Path_268" data-name="Path 268" class="cls-1" d="M113.85,104.831C83.95,91.267,54,119.722,24.14,106.158V45.571C54,59.135,83.95,30.68,113.85,44.244Z" transform="translate(0 0.434)"/>
    <path id="Path_269" data-name="Path 269" class="cls-2" d="M107.95,95.75C79.22,87.434,54,113.113,24.14,99.61V45.622C54,59.186,78.71,33.86,107.95,41.823Z" transform="translate(0 0.382)"/>
    <path id="Path_270" data-name="Path 270" class="cls-3" d="M42.28,112.789a44.8,44.8,0,0,1-18.84-3.908,2.466,2.466,0,0,1-1.3-2.277V46a2.622,2.622,0,0,1,.861-2,1.7,1.7,0,0,1,1.839-.279c14.42,6.538,28.67,2.983,43.76-.767s30.47-7.586,46-.56a2.466,2.466,0,0,1,1.3,2.277v60.587a2.622,2.622,0,0,1-.861,2,1.7,1.7,0,0,1-1.839.279c-14.42-6.538-28.67-2.983-43.76.767C60.5,110.537,51.43,112.789,42.28,112.789Zm-16.14-7.927c14,5.759,27.82,2.313,42.46-1.339,14.1-3.531,28.66-7.123,43.25-1.656V46.418c-14-5.759-27.82-2.313-42.46,1.339-14.1,3.531-28.66,7.111-43.25,1.644Z" transform="translate(0 0)"/>
    <path id="Path_271" data-name="Path 271" class="cls-4" d="M104.74,61.525V77.743c-5-.986-9.11,4.152-9.11,10.252-17.76,0-35.51,8.84-53.27,8.864,0-6.161-4.08-10.958-9.11-11.945V68.7c5,.986,9.11-4.152,9.11-10.252,17.76,0,35.51-8.84,53.27-8.864C95.63,55.741,99.71,60.538,104.74,61.525Z" transform="translate(0 2.415)"/>
    <path id="Path_272" data-name="Path 272" class="cls-3" d="M42.36,99.727a2.25,2.25,0,0,1-2-2.435,9.535,9.535,0,0,0-7.43-9.534,2.35,2.35,0,0,1-1.68-2.435V69.129a2.691,2.691,0,0,1,.694-1.876,1.761,1.761,0,0,1,1.626-.559A4.809,4.809,0,0,0,38,65.2a9.248,9.248,0,0,0,2.31-6.307,2.25,2.25,0,0,1,2-2.435C51,56.442,60,54.177,68.59,52.071c8.83-2.2,18-4.469,27-4.481h0a2.25,2.25,0,0,1,2,2.435,9.535,9.535,0,0,0,7.43,9.534,2.35,2.35,0,0,1,1.68,2.435V78.176a2.691,2.691,0,0,1-.694,1.876,1.761,1.761,0,0,1-1.626.559,4.816,4.816,0,0,0-4.48,1.534,9.243,9.243,0,0,0-2.32,6.307,2.25,2.25,0,0,1-2,2.435C87,90.863,78,93.14,69.4,95.234c-8.83,2.2-18,4.469-27,4.481ZM35.25,83.4c4.506,1.45,7.957,5.868,8.92,11.421,8.1-.292,16.39-2.35,24.42-4.347,8.24-2.046,16.73-4.164,25.21-4.456A13.832,13.832,0,0,1,97.35,78.4a8.636,8.636,0,0,1,5.39-2.752V63.918c-4.506-1.45-7.957-5.868-8.92-11.421-8.1.292-16.39,2.35-24.42,4.347-8.24,2.046-16.73,4.164-25.21,4.456a13.832,13.832,0,0,1-3.55,7.622,8.636,8.636,0,0,1-5.39,2.752Z" transform="translate(0 1.982)"/>
    <path id="Path_273" data-name="Path 273" class="cls-5" d="M78.25,68.841C78.016,75.36,74.227,80.882,69,82.32c-5.11,1.291-9.26-2.825-9.26-9.059.235-6.523,4.029-12.045,9.26-13.479C74.11,58.492,78.25,62.607,78.25,68.841Z" transform="translate(0 4.583)"/>
    <path id="Path_274" data-name="Path 274" class="cls-3" d="M67.12,85.431a8.316,8.316,0,0,1-5.95-2.508,12.8,12.8,0,0,1-3.43-9.217c.235-7.669,4.7-14.176,10.85-15.829a8.379,8.379,0,0,1,8.23,2.216,12.8,12.8,0,0,1,3.43,9.217h0c-.235,7.669-4.7,14.176-10.85,15.829A9.291,9.291,0,0,1,67.12,85.431Zm3.74-23.025a5.9,5.9,0,0,0-1.45.183c-4.308,1.194-7.439,5.731-7.66,11.1a7.535,7.535,0,0,0,2,5.443,4.953,4.953,0,0,0,4.9,1.218c4.308-1.194,7.439-5.731,7.66-11.1h0a7.535,7.535,0,0,0-2-5.443,4.778,4.778,0,0,0-3.46-1.4Z" transform="translate(0 4.151)"/>
    <path id="Path_275" data-name="Path 275" class="cls-1" d="M172.86,163.83c-29.86-13.552-59.86,14.9-89.72,1.339V104.582c29.9,13.564,59.81-14.891,89.71-1.339Q172.86,133.536,172.86,163.83Z" transform="translate(0 13.273)"/>
    <path id="Path_276" data-name="Path 276" class="cls-2" d="M167,154.761c-28.78-8.328-54,17.363-83.86,3.848V104.633c29.86,13.552,54.57-11.774,83.86-3.8Z" transform="translate(0 13.221)"/>
    <path id="Path_277" data-name="Path 277" class="cls-3" d="M101.29,171.8a44.8,44.8,0,0,1-18.84-3.908,2.466,2.466,0,0,1-1.3-2.277v-60.6a2.622,2.622,0,0,1,.861-2,1.7,1.7,0,0,1,1.839-.279c14.42,6.538,28.67,2.983,43.76-.767s30.47-7.586,46-.56a2.466,2.466,0,0,1,1.3,2.277v60.587a2.622,2.622,0,0,1-.861,2,1.7,1.7,0,0,1-1.839.279c-14.42-6.538-28.67-2.983-43.76.767C119.51,169.535,110.43,171.8,101.29,171.8Zm-16.15-7.939c14,5.759,27.82,2.313,42.46-1.339,14.11-3.519,28.67-7.147,43.26-1.68V105.416c-14-5.759-27.82-2.313-42.46,1.339-14.11,3.519-28.67,7.135-43.26,1.68Z" transform="translate(0 12.84)"/>
    <path id="Path_278" data-name="Path 278" class="cls-4" d="M163.75,120.535v16.218c-5-.986-9.11,4.152-9.11,10.252-17.76,0-35.51,8.84-53.27,8.864,0-6.161-4.08-10.958-9.11-11.945V127.706c5,.986,9.11-4.152,9.11-10.252,17.76,0,35.51-8.84,53.27-8.864C154.63,114.739,158.71,119.536,163.75,120.535Z" transform="translate(0 15.255)"/>
    <path id="Path_279" data-name="Path 279" class="cls-3" d="M101.37,158.732a2.25,2.25,0,0,1-2-2.435,9.535,9.535,0,0,0-7.43-9.534,2.35,2.35,0,0,1-1.68-2.435V128.146a2.691,2.691,0,0,1,.694-1.876,1.761,1.761,0,0,1,1.626-.559,4.816,4.816,0,0,0,4.48-1.534,9.248,9.248,0,0,0,2.31-6.307,2.25,2.25,0,0,1,2-2.435c8.68,0,17.6-2.24,26.24-4.383,8.83-2.2,18-4.469,27-4.481h0a2.25,2.25,0,0,1,2,2.435,9.535,9.535,0,0,0,7.43,9.534,2.35,2.35,0,0,1,1.68,2.435v16.218a2.691,2.691,0,0,1-.694,1.876,1.761,1.761,0,0,1-1.626.559,4.816,4.816,0,0,0-4.48,1.534,9.243,9.243,0,0,0-2.32,6.307,2.25,2.25,0,0,1-2,2.435c-8.68,0-17.6,2.24-26.24,4.383-8.83,2.2-18,4.469-27,4.481ZM94.25,142.4c4.506,1.45,7.957,5.868,8.92,11.421,8.1-.292,16.39-2.35,24.42-4.347,8.24-2.046,16.73-4.164,25.21-4.456a13.832,13.832,0,0,1,3.55-7.622,8.636,8.636,0,0,1,5.39-2.752V122.922c-4.506-1.45-7.957-5.868-8.92-11.421-8.1.292-16.39,2.35-24.42,4.347-8.24,2.046-16.73,4.164-25.21,4.456a13.831,13.831,0,0,1-3.55,7.622,8.636,8.636,0,0,1-5.39,2.752Z" transform="translate(0 14.815)"/>
    <path id="Path_280" data-name="Path 280" class="cls-5" d="M137.26,127.841c-.23,6.527-4.025,12.056-9.26,13.491-5.11,1.291-9.26-2.825-9.26-9.059.23-6.527,4.025-12.056,9.26-13.491C133.11,117.492,137.26,121.607,137.26,127.841Z" transform="translate(0 17.421)"/>
    <path id="Path_281" data-name="Path 281" class="cls-3" d="M126.12,144.431a8.316,8.316,0,0,1-5.95-2.508,12.8,12.8,0,0,1-3.43-9.217c.235-7.669,4.7-14.176,10.85-15.829a8.379,8.379,0,0,1,8.23,2.216,12.8,12.8,0,0,1,3.43,9.217h0c-.235,7.669-4.7,14.176-10.85,15.829a9.291,9.291,0,0,1-2.28.292Zm3.74-23.025a5.9,5.9,0,0,0-1.45.183c-4.308,1.194-7.439,5.731-7.66,11.1a7.535,7.535,0,0,0,2,5.443,4.953,4.953,0,0,0,4.9,1.218c4.308-1.194,7.439-5.731,7.66-11.1h0a7.535,7.535,0,0,0-2-5.443,4.775,4.775,0,0,0-3.45-1.388Z" transform="translate(0 16.989)"/>
    <path id="Path_282" data-name="Path 282" class="cls-1" d="M231.86,222.842c-29.9-13.564-59.81,14.891-89.71,1.339v-60.6c29.9,13.564,59.81-14.891,89.71-1.339Q231.86,192.548,231.86,222.842Z" transform="translate(0 26.11)"/>
    <path id="Path_283" data-name="Path 283" class="cls-2" d="M226,213.761c-28.77-8.328-53.95,17.363-83.85,3.848V163.633c29.9,13.564,54.57-11.774,83.81-3.8C226,180.034,226,193.573,226,213.761Z" transform="translate(0 26.059)"/>
    <path id="Path_284" data-name="Path 284" class="cls-3" d="M160.29,230.8a44.8,44.8,0,0,1-18.84-3.908,2.466,2.466,0,0,1-1.3-2.277v-60.6a2.622,2.622,0,0,1,.861-2,1.7,1.7,0,0,1,1.839-.279c14.42,6.538,28.67,2.983,43.76-.767s30.47-7.586,46-.56a2.466,2.466,0,0,1,1.3,2.277v60.587a2.622,2.622,0,0,1-.861,2,1.7,1.7,0,0,1-1.839.279c-14.42-6.538-28.67-2.983-43.76.767C178.51,228.535,169.44,230.8,160.29,230.8Zm-16.14-7.939c14,5.759,27.82,2.313,42.46-1.339,14.11-3.519,28.67-7.147,43.26-1.68V164.416c-14-5.759-27.82-2.313-42.46,1.339-14.11,3.519-28.67,7.135-43.26,1.68Z" transform="translate(0 25.678)"/>
    <path id="Path_285" data-name="Path 285" class="cls-4" d="M222.75,179.535v16.218c-5-.986-9.11,4.152-9.11,10.252-17.76,0-35.51,8.84-53.27,8.864,0-6.161-4.08-10.958-9.11-11.945V186.706c5,.986,9.11-4.152,9.11-10.252,17.76,0,35.51-8.84,53.27-8.864C213.64,173.751,217.72,178.548,222.75,179.535Z" transform="translate(0 28.093)"/>
    <path id="Path_286" data-name="Path 286" class="cls-3" d="M160.37,217.744a2.25,2.25,0,0,1-2-2.435,9.535,9.535,0,0,0-7.43-9.534,2.35,2.35,0,0,1-1.68-2.435V187.146a2.691,2.691,0,0,1,.694-1.876,1.761,1.761,0,0,1,1.626-.559,4.816,4.816,0,0,0,4.48-1.534,9.248,9.248,0,0,0,2.31-6.307,2.25,2.25,0,0,1,2-2.435c8.68,0,17.6-2.24,26.24-4.383,8.83-2.2,18-4.469,27-4.481h0a2.25,2.25,0,0,1,2,2.435,9.535,9.535,0,0,0,7.43,9.534,2.35,2.35,0,0,1,1.68,2.435v16.218a2.691,2.691,0,0,1-.694,1.876,1.761,1.761,0,0,1-1.626.559,4.816,4.816,0,0,0-4.48,1.534,9.242,9.242,0,0,0-2.32,6.307,2.25,2.25,0,0,1-2,2.435c-8.68,0-17.6,2.24-26.24,4.383-8.83,2.2-18,4.469-27,4.481Zm-7.11-16.34c4.506,1.45,7.957,5.868,8.92,11.421,8.1-.292,16.39-2.35,24.42-4.347,8.24-2.046,16.73-4.164,25.21-4.456a13.832,13.832,0,0,1,3.55-7.622,8.636,8.636,0,0,1,5.39-2.752V181.922c-4.506-1.45-7.957-5.868-8.92-11.421-8.1.292-16.39,2.35-24.42,4.347-8.24,2.046-16.73,4.164-25.21,4.456a13.831,13.831,0,0,1-3.55,7.622,8.636,8.636,0,0,1-5.39,2.752Z" transform="translate(0 27.653)"/>
    <path id="Path_287" data-name="Path 287" class="cls-5" d="M196.26,186.852c-.235,6.523-4.029,12.045-9.26,13.479-5.11,1.291-9.26-2.825-9.26-9.059.235-6.523,4.029-12.045,9.26-13.479C192.12,176.49,196.26,180.618,196.26,186.852Z" transform="translate(0 30.261)"/>
    <path id="Path_288" data-name="Path 288" class="cls-3" d="M185.13,203.441a8.316,8.316,0,0,1-5.95-2.508,12.8,12.8,0,0,1-3.43-9.217c.235-7.669,4.7-14.176,10.85-15.829a8.379,8.379,0,0,1,8.23,2.216,12.8,12.8,0,0,1,3.43,9.217h0c-.235,7.669-4.7,14.176-10.85,15.829a9.291,9.291,0,0,1-2.28.292Zm3.74-23.025a5.9,5.9,0,0,0-1.45.183c-4.308,1.194-7.438,5.731-7.66,11.1a7.535,7.535,0,0,0,2,5.443,4.953,4.953,0,0,0,4.9,1.218c4.308-1.194,7.438-5.731,7.66-11.1h0a7.535,7.535,0,0,0-2-5.443,4.778,4.778,0,0,0-3.46-1.4Z" transform="translate(0 29.829)"/>
    <ellipse id="Ellipse_436" data-name="Ellipse 436" class="cls-6" cx="5" cy="6.088" rx="5" ry="6.088" transform="translate(10 55.55)"/>
    <ellipse id="Ellipse_437" data-name="Ellipse 437" class="cls-6" cx="4" cy="4.87" rx="4" ry="4.87" transform="translate(131 70.161)"/>
    <ellipse id="Ellipse_438" data-name="Ellipse 438" class="cls-6" cx="3" cy="3.653" rx="3" ry="3.653" transform="translate(193 167.569)"/>
    <ellipse id="Ellipse_439" data-name="Ellipse 439" class="cls-6" cx="2" cy="2.435" rx="2" ry="2.435" transform="translate(182 61.638)"/>
    <ellipse id="Ellipse_440" data-name="Ellipse 440" class="cls-6" cx="1" cy="1.218" rx="1" ry="1.218" transform="translate(40 137.129)"/>
    <ellipse id="Ellipse_441" data-name="Ellipse 441" class="cls-7" cx="5" cy="6.088" rx="5" ry="6.088" transform="translate(212 155.393)"/>
    <ellipse id="Ellipse_442" data-name="Ellipse 442" class="cls-7" cx="4" cy="4.87" rx="4" ry="4.87" transform="translate(67 149.305)"/>
    <ellipse id="Ellipse_443" data-name="Ellipse 443" class="cls-7" cx="3" cy="3.653" rx="3" ry="3.653" transform="translate(52 232.101)"/>
    <ellipse id="Ellipse_444" data-name="Ellipse 444" class="cls-7" cx="2" cy="2.435" rx="2" ry="2.435" transform="translate(188 111.559)"/>
    <ellipse id="Ellipse_445" data-name="Ellipse 445" class="cls-7" cx="1" cy="1.218" rx="1" ry="1.218" transform="translate(239 173.352)"/>
    <ellipse id="Ellipse_446" data-name="Ellipse 446" class="cls-8" cx="5" cy="6.088" rx="5" ry="6.088" transform="translate(123 223.578)"/>
    <ellipse id="Ellipse_447" data-name="Ellipse 447" class="cls-8" cx="4" cy="4.87" rx="4" ry="4.87" transform="translate(203 123.735)"/>
    <ellipse id="Ellipse_448" data-name="Ellipse 448" class="cls-8" cx="3" cy="3.653" rx="3" ry="3.653" transform="translate(2 102.732)"/>
    <ellipse id="Ellipse_449" data-name="Ellipse 449" class="cls-8" cx="2" cy="2.435" rx="2" ry="2.435" transform="translate(51 171.221)"/>
    <ellipse id="Ellipse_450" data-name="Ellipse 450" class="cls-8" cx="1" cy="1.218" rx="1" ry="1.218" transform="translate(40 199.226)"/>
    <ellipse id="Ellipse_451" data-name="Ellipse 451" class="cls-9" cx="5" cy="6.088" rx="5" ry="6.088" transform="translate(244 225.709)"/>
    <ellipse id="Ellipse_452" data-name="Ellipse 452" class="cls-9" cx="4" cy="4.87" rx="4" ry="4.87" transform="translate(7 136.824)"/>
    <ellipse id="Ellipse_453" data-name="Ellipse 453" class="cls-9" cx="3" cy="3.653" rx="3" ry="3.653" transform="translate(71 206.532)"/>
    <ellipse id="Ellipse_454" data-name="Ellipse 454" class="cls-9" cx="2" cy="2.435" rx="2" ry="2.435" transform="translate(112 202.879)"/>
    <ellipse id="Ellipse_455" data-name="Ellipse 455" class="cls-9" cx="1" cy="1.218" rx="1" ry="1.218" transform="translate(171 78.685)"/>
  </g>
</svg>
